<svg xmlns="http://www.w3.org/2000/svg" viewBox="0 0 420 240" role="img" aria-labelledby="title desc">
  <title id="title">Túlio Lopes Advocacia</title>
  <desc id="desc">Marca TL com o nome Túlio Lopes Advocacia.</desc>
  <defs>
    <linearGradient id="silver" x1="0" x2="1" y1="0" y2="1">
      <stop offset="0" stop-color="#ffffff"/>
      <stop offset=".32" stop-color="#aeb1b5"/>
      <stop offset=".62" stop-color="#f7f7f7"/>
      <stop offset="1" stop-color="#7b7f85"/>
    </linearGradient>
    <linearGradient id="gold" x1="0" x2="1" y1="0" y2="1">
      <stop offset="0" stop-color="#f5d37a"/>
      <stop offset=".5" stop-color="#c8922a"/>
      <stop offset="1" stop-color="#8e6418"/>
    </linearGradient>
    <filter id="shadow" x="-15%" y="-15%" width="130%" height="130%">
      <feDropShadow dx="0" dy="4" stdDeviation="4" flood-color="#000000" flood-opacity=".45"/>
    </filter>
  </defs>
  <g filter="url(#shadow)">
    <path d="M210 24c25 0 39 22 70 22-3 26-12 48-30 65-13 12-26 18-40 23-14-5-27-11-40-23-18-17-27-39-30-65 31 0 45-22 70-22Z" fill="url(#silver)" stroke="#d9d9d9" stroke-width="3"/>
    <path d="M210 34c20 0 34 17 57 20-4 20-12 36-25 48-10 9-20 15-32 19-12-4-22-10-32-19-13-12-21-28-25-48 23-3 37-20 57-20Z" fill="none" stroke="#1f2226" stroke-width="3" opacity=".9"/>
    <text x="210" y="99" fill="#22252a" font-family="Georgia, 'Times New Roman', serif" font-size="54" text-anchor="middle" letter-spacing="-4">TL</text>
    <path d="M104 145c45-34 167-34 212 0" fill="none" stroke="url(#silver)" stroke-width="12" stroke-linecap="round"/>
    <path d="M104 145c45-34 167-34 212 0" fill="none" stroke="#101214" stroke-width="3" stroke-linecap="round"/>
    <circle cx="92" cy="147" r="10" fill="url(#silver)" stroke="#101214" stroke-width="3"/>
    <circle cx="328" cy="147" r="10" fill="url(#silver)" stroke="#101214" stroke-width="3"/>
  </g>
  <text x="210" y="188" fill="url(#silver)" stroke="#141414" stroke-width="1.1" paint-order="stroke" font-family="Georgia, 'Times New Roman', serif" font-size="54" text-anchor="middle" letter-spacing="6">TÚLIO LOPES</text>
  <text x="210" y="223" fill="url(#gold)" font-family="Georgia, 'Times New Roman', serif" font-size="23" text-anchor="middle" letter-spacing="18">ADVOCACIA</text>
</svg>
